<?xml version="1.0" encoding="UTF-8"?>
<!--Generator: Apple Native CoreSVG 149-->
<!DOCTYPE svg
PUBLIC "-//W3C//DTD SVG 1.1//EN"
       "http://www.w3.org/Graphics/SVG/1.1/DTD/svg11.dtd">
<svg version="1.1" xmlns="http://www.w3.org/2000/svg" xmlns:xlink="http://www.w3.org/1999/xlink" width="3300" height="2200">
 <!--glyph: "uni100C0E.medium", point size: 100.000000, font version: "Version 16.0d12e3", template writer version: "8"-->
 <g id="Notes">
  <rect height="2200" id="artboard" style="fill:white;opacity:1" width="3300" x="0" y="0"/>
  <line id="" style="fill:none;stroke:black;opacity:1;stroke-width:0.5;" x1="263" x2="3036" y1="292" y2="292"/>
  <text style="stroke:none;fill:black;font-family:-apple-system,&quot;SF Pro Display&quot;,&quot;SF Pro Text&quot;,Helvetica,sans-serif;font-weight:bold;" transform="matrix(1 0 0 1 263 322)">Weight/Scale Variations</text>
  <text style="stroke:none;fill:black;font-family:-apple-system,&quot;SF Pro Display&quot;,&quot;SF Pro Text&quot;,Helvetica,sans-serif;text-anchor:middle;" transform="matrix(1 0 0 1 559.711 322)">Ultralight</text>
  <text style="stroke:none;fill:black;font-family:-apple-system,&quot;SF Pro Display&quot;,&quot;SF Pro Text&quot;,Helvetica,sans-serif;text-anchor:middle;" transform="matrix(1 0 0 1 856.422 322)">Thin</text>
  <text style="stroke:none;fill:black;font-family:-apple-system,&quot;SF Pro Display&quot;,&quot;SF Pro Text&quot;,Helvetica,sans-serif;text-anchor:middle;" transform="matrix(1 0 0 1 1153.13 322)">Light</text>
  <text style="stroke:none;fill:black;font-family:-apple-system,&quot;SF Pro Display&quot;,&quot;SF Pro Text&quot;,Helvetica,sans-serif;text-anchor:middle;" transform="matrix(1 0 0 1 1449.84 322)">Regular</text>
  <text style="stroke:none;fill:black;font-family:-apple-system,&quot;SF Pro Display&quot;,&quot;SF Pro Text&quot;,Helvetica,sans-serif;text-anchor:middle;" transform="matrix(1 0 0 1 1746.56 322)">Medium</text>
  <text style="stroke:none;fill:black;font-family:-apple-system,&quot;SF Pro Display&quot;,&quot;SF Pro Text&quot;,Helvetica,sans-serif;text-anchor:middle;" transform="matrix(1 0 0 1 2043.27 322)">Semibold</text>
  <text style="stroke:none;fill:black;font-family:-apple-system,&quot;SF Pro Display&quot;,&quot;SF Pro Text&quot;,Helvetica,sans-serif;text-anchor:middle;" transform="matrix(1 0 0 1 2339.98 322)">Bold</text>
  <text style="stroke:none;fill:black;font-family:-apple-system,&quot;SF Pro Display&quot;,&quot;SF Pro Text&quot;,Helvetica,sans-serif;text-anchor:middle;" transform="matrix(1 0 0 1 2636.69 322)">Heavy</text>
  <text style="stroke:none;fill:black;font-family:-apple-system,&quot;SF Pro Display&quot;,&quot;SF Pro Text&quot;,Helvetica,sans-serif;text-anchor:middle;" transform="matrix(1 0 0 1 2933.4 322)">Black</text>
  <line id="" style="fill:none;stroke:black;opacity:1;stroke-width:0.5;" x1="263" x2="3036" y1="1903" y2="1903"/>
  <g id="" transform="matrix(1 0 0 1 263 1933)">
   <path d="M9.24805 0.830078C13.5547 0.830078 17.1387-2.74414 17.1387-7.05078C17.1387-11.3574 13.5449-14.9316 9.23828-14.9316C4.94141-14.9316 1.36719-11.3574 1.36719-7.05078C1.36719-2.74414 4.95117 0.830078 9.24805 0.830078ZM9.24805-0.654297C5.70312-0.654297 2.87109-3.49609 2.87109-7.05078C2.87109-10.6055 5.69336-13.4473 9.23828-13.4473C12.793-13.4473 15.6348-10.6055 15.6445-7.05078C15.6543-3.49609 12.8027-0.654297 9.24805-0.654297ZM9.22852-3.62305C9.69727-3.62305 9.9707-3.93555 9.9707-4.45312L9.9707-6.31836L12.002-6.31836C12.5-6.31836 12.832-6.57227 12.832-7.04102C12.832-7.51953 12.5195-7.7832 12.002-7.7832L9.9707-7.7832L9.9707-9.81445C9.9707-10.332 9.69727-10.6543 9.22852-10.6543C8.75977-10.6543 8.50586-10.3125 8.50586-9.81445L8.50586-7.7832L6.49414-7.7832C5.97656-7.7832 5.64453-7.51953 5.64453-7.04102C5.64453-6.57227 5.99609-6.31836 6.49414-6.31836L8.50586-6.31836L8.50586-4.45312C8.50586-3.95508 8.75977-3.62305 9.22852-3.62305Z"/>
  </g>
  <g id="" transform="matrix(1 0 0 1 281.506 1933)">
   <path d="M11.709 2.91016C17.1582 2.91016 21.6699-1.61133 21.6699-7.05078C21.6699-12.5 17.1484-17.0117 11.6992-17.0117C6.25977-17.0117 1.74805-12.5 1.74805-7.05078C1.74805-1.61133 6.26953 2.91016 11.709 2.91016ZM11.709 1.25C7.09961 1.25 3.41797-2.44141 3.41797-7.05078C3.41797-11.6602 7.08984-15.3516 11.6992-15.3516C16.3086-15.3516 20-11.6602 20.0098-7.05078C20.0195-2.44141 16.3184 1.25 11.709 1.25ZM11.6797-2.66602C12.207-2.66602 12.5098-3.01758 12.5098-3.59375L12.5098-6.23047L15.3223-6.23047C15.8691-6.23047 16.25-6.51367 16.25-7.03125C16.25-7.55859 15.8887-7.86133 15.3223-7.86133L12.5098-7.86133L12.5098-10.6836C12.5098-11.25 12.207-11.6113 11.6797-11.6113C11.1621-11.6113 10.8789-11.2305 10.8789-10.6836L10.8789-7.86133L8.07617-7.86133C7.50977-7.86133 7.13867-7.55859 7.13867-7.03125C7.13867-6.51367 7.5293-6.23047 8.07617-6.23047L10.8789-6.23047L10.8789-3.59375C10.8789-3.03711 11.1621-2.66602 11.6797-2.66602Z"/>
  </g>
  <g id="" transform="matrix(1 0 0 1 304.924 1933)">
   <path d="M14.9707 5.66406C21.9336 5.66406 27.6953-0.0976562 27.6953-7.05078C27.6953-14.0137 21.9238-19.7754 14.9609-19.7754C8.00781-19.7754 2.25586-14.0137 2.25586-7.05078C2.25586-0.0976562 8.01758 5.66406 14.9707 5.66406ZM14.9707 3.84766C8.93555 3.84766 4.08203-1.01562 4.08203-7.05078C4.08203-13.0957 8.92578-17.9492 14.9609-17.9492C21.0059-17.9492 25.8594-13.0957 25.8691-7.05078C25.8789-1.01562 21.0156 3.84766 14.9707 3.84766ZM14.9414-1.38672C15.5176-1.38672 15.8594-1.77734 15.8594-2.38281L15.8594-6.13281L19.7754-6.13281C20.3711-6.13281 20.7812-6.46484 20.7812-7.02148C20.7812-7.59766 20.3906-7.93945 19.7754-7.93945L15.8594-7.93945L15.8594-11.8652C15.8594-12.4805 15.5176-12.8711 14.9414-12.8711C14.375-12.8711 14.0527-12.4609 14.0527-11.8652L14.0527-7.93945L10.1465-7.93945C9.53125-7.93945 9.13086-7.59766 9.13086-7.02148C9.13086-6.46484 9.55078-6.13281 10.1465-6.13281L14.0527-6.13281L14.0527-2.38281C14.0527-1.79688 14.375-1.38672 14.9414-1.38672Z"/>
  </g>
  <text style="stroke:none;fill:black;font-family:-apple-system,&quot;SF Pro Display&quot;,&quot;SF Pro Text&quot;,Helvetica,sans-serif;font-weight:bold;" transform="matrix(1 0 0 1 263 1953)">Design Variations</text>
  <text style="stroke:none;fill:black;font-family:-apple-system,&quot;SF Pro Display&quot;,&quot;SF Pro Text&quot;,Helvetica,sans-serif;" transform="matrix(1 0 0 1 263 1971)">Symbols are supported in up to nine weights and three scales.</text>
  <text style="stroke:none;fill:black;font-family:-apple-system,&quot;SF Pro Display&quot;,&quot;SF Pro Text&quot;,Helvetica,sans-serif;" transform="matrix(1 0 0 1 263 1989)">For optimal layout with text and other symbols, vertically align</text>
  <text style="stroke:none;fill:black;font-family:-apple-system,&quot;SF Pro Display&quot;,&quot;SF Pro Text&quot;,Helvetica,sans-serif;" transform="matrix(1 0 0 1 263 2007)">symbols with the adjacent text.</text>
  <line id="" style="fill:none;stroke:#00AEEF;stroke-width:0.5;opacity:1.0;" x1="776" x2="776" y1="1919" y2="1933"/>
  <g id="" transform="matrix(1 0 0 1 776 1933)">
   <path d="M3.31055 0.126953C3.82812 0.126953 4.08203-0.0683594 4.26758-0.605469L5.52734-4.0625L11.2891-4.0625L12.5488-0.605469C12.7344-0.0683594 12.9883 0.126953 13.4961 0.126953C14.0137 0.126953 14.3457-0.185547 14.3457-0.673828C14.3457-0.839844 14.3164-0.986328 14.2383-1.20117L9.6582-13.3887C9.43359-13.9941 9.0332-14.2871 8.4082-14.2871C7.80273-14.2871 7.39258-13.9941 7.17773-13.3984L2.59766-1.19141C2.51953-0.976562 2.49023-0.830078 2.49023-0.664062C2.49023-0.175781 2.80273 0.126953 3.31055 0.126953ZM6.00586-5.53711L8.37891-12.1094L8.42773-12.1094L10.8008-5.53711Z"/>
  </g>
  <line id="" style="fill:none;stroke:#00AEEF;stroke-width:0.5;opacity:1.0;" x1="792.836" x2="792.836" y1="1919" y2="1933"/>
  <text style="stroke:none;fill:black;font-family:-apple-system,&quot;SF Pro Display&quot;,&quot;SF Pro Text&quot;,Helvetica,sans-serif;font-weight:bold;" transform="matrix(1 0 0 1 776 1953)">Margins</text>
  <text style="stroke:none;fill:black;font-family:-apple-system,&quot;SF Pro Display&quot;,&quot;SF Pro Text&quot;,Helvetica,sans-serif;" transform="matrix(1 0 0 1 776 1971)">Leading and trailing margins on the left and right side of each symbol</text>
  <text style="stroke:none;fill:black;font-family:-apple-system,&quot;SF Pro Display&quot;,&quot;SF Pro Text&quot;,Helvetica,sans-serif;" transform="matrix(1 0 0 1 776 1989)">can be adjusted by modifying the x-location of the margin guidelines.</text>
  <text style="stroke:none;fill:black;font-family:-apple-system,&quot;SF Pro Display&quot;,&quot;SF Pro Text&quot;,Helvetica,sans-serif;" transform="matrix(1 0 0 1 776 2007)">Modifications are automatically applied proportionally to all</text>
  <text style="stroke:none;fill:black;font-family:-apple-system,&quot;SF Pro Display&quot;,&quot;SF Pro Text&quot;,Helvetica,sans-serif;" transform="matrix(1 0 0 1 776 2025)">scales and weights.</text>
  <g id="" transform="matrix(1 0 0 1 1289 1933)">
   <path d="M2.8418 1.86523L4.54102 3.57422C5.40039 4.44336 6.38672 4.38477 7.31445 3.35938L17.4902-7.85156C17.7539-7.76367 18.0273-7.7832 18.3398-7.8418L19.4043-8.03711L20.0684-7.36328L20.0293-6.80664C19.9902-6.30859 20.1172-5.92773 20.6055-5.44922L21.3672-4.70703C21.8457-4.22852 22.4609-4.19922 22.9297-4.66797L25.8398-7.58789C26.3086-8.05664 26.2891-8.65234 25.8105-9.13086L25.0391-9.89258C24.5605-10.3711 24.1895-10.5273 23.7109-10.4883L23.1348-10.4395L22.4902-11.0742L22.7344-12.1973C22.8613-12.7637 22.7051-13.2031 22.1191-13.7891L19.9219-15.9766C16.582-19.2969 12.1484-19.2188 9.25781-16.3281C8.83789-15.918 8.80859-15.3418 9.04297-14.9512C9.27734-14.5898 9.73633-14.3555 10.3809-14.5215C11.8457-14.8633 13.3691-14.9219 14.7949-13.9844L14.209-12.5293C14.0137-12.0508 13.9844-11.6504 14.1113-11.2891L3.04688-0.898438C2.06055 0.0195312 1.98242 0.996094 2.8418 1.86523ZM10.752-15.957C13.1836-17.7344 16.4746-17.4316 18.7012-15.2051L21.1328-12.793C21.3672-12.5586 21.4062-12.373 21.3379-12.0312L21.0156-10.5469L22.5195-9.0625L23.5059-9.12109C23.7598-9.13086 23.8379-9.11133 24.0332-8.91602L24.6094-8.33984L22.168-5.89844L21.5918-6.47461C21.3965-6.66992 21.3672-6.74805 21.377-7.01172L21.4453-7.98828L19.9512-9.47266L18.4277-9.21875C18.1055-9.15039 17.959-9.17969 17.7148-9.41406L15.7129-11.416C15.459-11.6504 15.4297-11.8164 15.5859-12.1875L16.4648-14.2773C14.9023-15.7324 12.8711-16.3574 10.8398-15.7617C10.6836-15.7227 10.625-15.8496 10.752-15.957ZM5.27344 2.30469L4.10156 1.14258C3.63281 0.683594 3.74023 0.341797 4.14062-0.0195312L14.9512-10.1953L16.416-8.71094L6.42578 2.27539C6.07422 2.67578 5.74219 2.77344 5.27344 2.30469Z"/>
  </g>
  <text style="stroke:none;fill:black;font-family:-apple-system,&quot;SF Pro Display&quot;,&quot;SF Pro Text&quot;,Helvetica,sans-serif;font-weight:bold;" transform="matrix(1 0 0 1 1289 1953)">Exporting</text>
  <text style="stroke:none;fill:black;font-family:-apple-system,&quot;SF Pro Display&quot;,&quot;SF Pro Text&quot;,Helvetica,sans-serif;" transform="matrix(1 0 0 1 1289 1971)">Symbols should be outlined when exporting to ensure the</text>
  <text style="stroke:none;fill:black;font-family:-apple-system,&quot;SF Pro Display&quot;,&quot;SF Pro Text&quot;,Helvetica,sans-serif;" transform="matrix(1 0 0 1 1289 1989)">design is preserved when submitting to Xcode.</text>
  <text id="template-version" style="stroke:none;fill:black;font-family:-apple-system,&quot;SF Pro Display&quot;,&quot;SF Pro Text&quot;,Helvetica,sans-serif;text-anchor:end;" transform="matrix(1 0 0 1 3036 1933)">Template v.2.0</text>
  <text style="stroke:none;fill:black;font-family:-apple-system,&quot;SF Pro Display&quot;,&quot;SF Pro Text&quot;,Helvetica,sans-serif;text-anchor:end;" transform="matrix(1 0 0 1 3036 1951)">Requires Xcode 12 or greater</text>
  <text style="stroke:none;fill:black;font-family:-apple-system,&quot;SF Pro Display&quot;,&quot;SF Pro Text&quot;,Helvetica,sans-serif;text-anchor:end;" transform="matrix(1 0 0 1 3036 1969)">Generated from arrow.backward.circle.fill</text>
  <text style="stroke:none;fill:black;font-family:-apple-system,&quot;SF Pro Display&quot;,&quot;SF Pro Text&quot;,Helvetica,sans-serif;text-anchor:end;" transform="matrix(1 0 0 1 3036 1987)">Typeset at 100 points</text>
  <text style="stroke:none;fill:black;font-family:-apple-system,&quot;SF Pro Display&quot;,&quot;SF Pro Text&quot;,Helvetica,sans-serif;" transform="matrix(1 0 0 1 263 726)">Small</text>
  <text style="stroke:none;fill:black;font-family:-apple-system,&quot;SF Pro Display&quot;,&quot;SF Pro Text&quot;,Helvetica,sans-serif;" transform="matrix(1 0 0 1 263 1156)">Medium</text>
  <text style="stroke:none;fill:black;font-family:-apple-system,&quot;SF Pro Display&quot;,&quot;SF Pro Text&quot;,Helvetica,sans-serif;" transform="matrix(1 0 0 1 263 1586)">Large</text>
 </g>
 <g id="Guides">
  <g id="H-reference" style="fill:#27AAE1;stroke:none;" transform="matrix(1 0 0 1 339 696)">
   <path d="M0.976562 0L3.66211 0L12.9883-24.4629L45.752-24.4629L55.127 0L57.7637 0L30.6152-70.459L28.125-70.459ZM29.3457-67.1387L29.4434-67.1387L44.873-26.709L13.8672-26.709Z"/>
  </g>
  <line id="Baseline-S" style="fill:none;stroke:#27AAE1;opacity:1;stroke-width:0.5;" x1="263" x2="3036" y1="696" y2="696"/>
  <line id="Capline-S" style="fill:none;stroke:#27AAE1;opacity:1;stroke-width:0.5;" x1="263" x2="3036" y1="625.541" y2="625.541"/>
  <g id="H-reference" style="fill:#27AAE1;stroke:none;" transform="matrix(1 0 0 1 339 1126)">
   <path d="M0.976562 0L3.66211 0L12.9883-24.4629L45.752-24.4629L55.127 0L57.7637 0L30.6152-70.459L28.125-70.459ZM29.3457-67.1387L29.4434-67.1387L44.873-26.709L13.8672-26.709Z"/>
  </g>
  <line id="Baseline-M" style="fill:none;stroke:#27AAE1;opacity:1;stroke-width:0.5;" x1="263" x2="3036" y1="1126" y2="1126"/>
  <line id="Capline-M" style="fill:none;stroke:#27AAE1;opacity:1;stroke-width:0.5;" x1="263" x2="3036" y1="1055.54" y2="1055.54"/>
  <g id="H-reference" style="fill:#27AAE1;stroke:none;" transform="matrix(1 0 0 1 339 1556)">
   <path d="M0.976562 0L3.66211 0L12.9883-24.4629L45.752-24.4629L55.127 0L57.7637 0L30.6152-70.459L28.125-70.459ZM29.3457-67.1387L29.4434-67.1387L44.873-26.709L13.8672-26.709Z"/>
  </g>
  <line id="Baseline-L" style="fill:none;stroke:#27AAE1;opacity:1;stroke-width:0.5;" x1="263" x2="3036" y1="1556" y2="1556"/>
  <line id="Capline-L" style="fill:none;stroke:#27AAE1;opacity:1;stroke-width:0.5;" x1="263" x2="3036" y1="1485.54" y2="1485.54"/>
  <line id="left-margin" style="fill:none;stroke:#00AEEF;stroke-width:0.5;opacity:1.0;" x1="1391.3" x2="1391.3" y1="1030.79" y2="1150.12"/>
  <line id="right-margin" style="fill:none;stroke:#00AEEF;stroke-width:0.5;opacity:1.0;" x1="1508.39" x2="1508.39" y1="1030.79" y2="1150.12"/>
 </g>
 <g id="Symbols">
  <g id="Black-L" transform="matrix(1 0 0 1 2854.05 1556)">
   <path d="M79.3457 32.8613C116.748 32.8613 147.412 2.19727 147.412-35.2051C147.412-72.6074 116.748-103.271 79.2969-103.271C41.8945-103.271 11.2793-72.6074 11.2793-35.2051C11.2793 2.19727 41.9434 32.8613 79.3457 32.8613ZM43.9941-35.1562C43.9941-38.2812 45.1172-40.7715 47.3633-42.8223L70.2637-64.209C72.168-66.0156 73.8281-66.6504 76.2695-66.6504C80.6641-66.6504 83.6914-63.4766 83.6914-58.8867C83.6914-56.6895 82.6172-54.3945 81.1035-53.0762L74.4629-47.3633L68.457-43.5547L81.2988-44.4824L106.152-44.4824C111.182-44.4824 114.746-40.4297 114.746-35.1562C114.746-29.9316 111.182-25.8789 106.152-25.8789L81.2988-25.8789L68.4082-26.8066L74.1699-23.0469L81.1035-17.2852C82.7148-16.0156 83.6914-13.7207 83.6914-11.4746C83.6914-6.83594 80.6641-3.66211 76.2695-3.66211C73.8281-3.66211 72.168-4.3457 70.2637-6.15234L47.3633-27.4902C45.1172-29.541 43.9941-32.0801 43.9941-35.1562Z"/>
  </g>
  <g id="Heavy-L" transform="matrix(1 0 0 1 2558.39 1556)">
   <path d="M78.2715 31.7871C115.088 31.7871 145.312 1.5625 145.312-35.2051C145.312-72.0215 115.039-102.246 78.2715-102.246C41.4551-102.246 11.2793-72.0215 11.2793-35.2051C11.2793 1.5625 41.5039 31.7871 78.2715 31.7871ZM43.457-35.2051C43.457-37.8418 44.3848-39.9902 46.3867-41.8457L69.1895-63.4766C70.8496-65.0391 72.3633-65.625 74.4629-65.625C78.3691-65.625 81.1035-62.793 81.1035-58.7402C81.1035-56.7871 80.1758-54.7852 78.8086-53.6133L71.5332-47.0215L65.0879-42.4805L77.8809-43.3105L105.615-43.3105C110.059-43.3105 113.184-39.7949 113.184-35.2051C113.184-30.6152 110.059-27.0996 105.615-27.0996L77.8809-27.0996L65.0391-27.9297L71.3379-23.4375L78.8086-16.8457C80.2246-15.6738 81.1035-13.7207 81.1035-11.7188C81.1035-7.61719 78.3691-4.78516 74.4629-4.78516C72.3633-4.78516 70.8496-5.37109 69.1895-6.93359L46.3867-28.5645C44.4336-30.3711 43.457-32.5195 43.457-35.2051Z"/>
  </g>
  <g id="Bold-L" transform="matrix(1 0 0 1 2262.88 1556)">
   <path d="M77.0996 30.5664C113.232 30.5664 142.92 0.878906 142.92-35.2539C142.92-71.3379 113.184-101.074 77.0508-101.074C40.9668-101.074 11.2793-71.3379 11.2793-35.2539C11.2793 0.878906 41.0156 30.5664 77.0996 30.5664ZM42.8223-35.2539C42.8223-37.4023 43.6035-39.1113 45.3125-40.6738L68.0176-62.6465C69.3359-63.9648 70.6543-64.4531 72.4609-64.4531C75.8301-64.4531 78.2227-62.0117 78.2227-58.5938C78.2227-56.8848 77.3926-55.2246 76.2695-54.1504L68.2617-46.6797L61.3281-41.3086L74.0234-41.9922L105.029-41.9922C108.789-41.9922 111.426-39.1113 111.426-35.2539C111.426-31.3965 108.789-28.5156 105.029-28.5156L74.0234-28.5156L61.2793-29.1992L68.1152-23.8281L76.2695-16.3574C77.4414-15.332 78.2227-13.6719 78.2227-11.9629C78.2227-8.49609 75.8301-6.00586 72.4609-6.00586C70.6543-6.00586 69.3359-6.5918 68.0176-7.86133L45.3125-29.7852C43.6523-31.3477 42.8223-33.0566 42.8223-35.2539Z"/>
  </g>
  <g id="Semibold-L" transform="matrix(1 0 0 1 1966.97 1556)">
   <path d="M76.2695 29.7363C111.914 29.7363 141.309 0.390625 141.309-35.2539C141.309-70.8984 111.865-100.244 76.2695-100.244C40.625-100.244 11.2793-70.8984 11.2793-35.2539C11.2793 0.390625 40.6738 29.7363 76.2695 29.7363ZM42.3828-35.3027C42.3828-37.0605 43.0664-38.4766 44.5312-39.8926L67.1875-62.1094C68.3105-63.1836 69.4824-63.6719 71.0938-63.6719C74.0723-63.6719 76.2207-61.4746 76.2207-58.4473C76.2207-56.9336 75.4883-55.5176 74.5117-54.541L66.0156-46.4355L58.7402-40.4785L71.3867-41.1133L104.639-41.1133C107.91-41.1133 110.254-38.6719 110.254-35.2539C110.254-31.9336 107.91-29.4922 104.639-29.4922L71.3867-29.4922L58.6914-30.0781L65.9668-24.1211L74.5117-16.0156C75.5371-15.0879 76.2207-13.6719 76.2207-12.1094C76.2207-9.08203 74.0723-6.88477 71.0938-6.88477C69.4824-6.88477 68.3105-7.37305 67.1875-8.49609L44.5312-30.6152C43.1152-31.9824 42.3828-33.4473 42.3828-35.3027Z"/>
  </g>
  <g id="Medium-L" transform="matrix(1 0 0 1 1670.87 1556)">
   <path d="M75.6836 29.1504C110.938 29.1504 140.088 0 140.088-35.2539C140.088-70.5078 110.889-99.6582 75.6348-99.6582C40.3809-99.6582 11.2793-70.5078 11.2793-35.2539C11.2793 0 40.3809 29.1504 75.6836 29.1504ZM42.0898-35.3027C42.0898-36.8164 42.6758-38.0371 43.9941-39.3066L66.5527-61.6699C67.5293-62.6465 68.6035-63.0859 70.0684-63.0859C72.7539-63.0859 74.6582-61.084 74.6582-58.3984C74.6582-56.9824 74.0723-55.7617 73.1445-54.8828L64.3555-46.2402L56.7871-39.8926L69.3848-40.4297L104.346-40.4297C107.227-40.4297 109.326-38.2812 109.326-35.3027C109.326-32.373 107.275-30.1758 104.346-30.1758L69.3848-30.1758L56.7383-30.7617L64.2578-24.3652L73.1445-15.7715C74.1211-14.8926 74.6582-13.6719 74.6582-12.2559C74.6582-9.57031 72.7539-7.51953 70.0684-7.51953C68.6035-7.51953 67.5293-8.00781 66.5527-8.93555L43.9941-31.25C42.7246-32.4707 42.0898-33.6914 42.0898-35.3027Z"/>
  </g>
  <g id="Regular-L" transform="matrix(1 0 0 1 1374.97 1556)">
   <path d="M74.8535 28.3203C109.668 28.3203 138.477-0.488281 138.477-35.2539C138.477-70.0684 109.619-98.877 74.8047-98.877C40.0391-98.877 11.2793-70.0684 11.2793-35.2539C11.2793-0.488281 40.0879 28.3203 74.8535 28.3203ZM41.6504-35.3516C41.6504-36.5234 42.1387-37.4512 43.2129-38.5742L65.7715-61.1328C66.5039-61.9141 67.4805-62.3047 68.7012-62.3047C70.9961-62.3047 72.7051-60.5469 72.7051-58.252C72.7051-57.0801 72.168-56.0547 71.4355-55.2734L62.1094-45.9961L54.1992-39.0625L66.7969-39.5508L103.955-39.5508C106.396-39.5508 108.154-37.8418 108.154-35.3027C108.154-32.9102 106.396-31.1523 103.955-31.1523L66.7969-31.1523L54.1992-31.5918L62.1094-24.6582L71.4355-15.4297C72.2168-14.6484 72.7051-13.623 72.7051-12.4512C72.7051-10.1562 70.9961-8.34961 68.7012-8.34961C67.4805-8.34961 66.5039-8.78906 65.7715-9.57031L43.2129-32.0801C42.1875-33.1543 41.6504-34.082 41.6504-35.3516Z"/>
  </g>
  <g id="Light-L" transform="matrix(1 0 0 1 1079.18 1556)">
   <path d="M73.9258 27.3926C108.301 27.3926 136.621-0.927734 136.621-35.2539C136.621-69.6289 108.252-97.9492 73.9258-97.9492C39.5508-97.9492 11.2793-69.6289 11.2793-35.2539C11.2793-0.927734 39.5996 27.3926 73.9258 27.3926ZM41.0156-35.3516C41.0156-36.1816 41.3574-36.9629 42.1875-37.793L65.5273-61.1328C66.1133-61.7188 66.8457-62.0605 67.8223-62.0605C69.5801-62.0605 70.8496-60.7422 70.8496-58.9844C70.8496-58.0078 70.459-57.2754 69.8242-56.6406L58.8379-45.7031L50.8301-38.2324L61.8652-38.623L103.662-38.623C105.566-38.623 106.934-37.3047 106.934-35.3027C106.934-33.4473 105.615-32.0801 103.662-32.0801L61.8652-32.0801L50.8789-32.4219L58.8379-25L69.8242-14.0625C70.459-13.4277 70.8496-12.6953 70.8496-11.7188C70.8496-9.96094 69.5801-8.64258 67.8223-8.64258C66.8457-8.64258 66.1133-8.98438 65.5273-9.57031L42.1875-32.9102C41.4551-33.6426 41.0156-34.375 41.0156-35.3516Z"/>
  </g>
  <g id="Thin-L" transform="matrix(1 0 0 1 783.693 1556)">
   <path d="M72.7051 26.1719C106.494 26.1719 134.18-1.51367 134.18-35.2539C134.18-69.043 106.494-96.7285 72.7051-96.7285C38.9648-96.7285 11.2793-69.043 11.2793-35.2539C11.2793-1.51367 38.9648 26.1719 72.7051 26.1719ZM40.1855-35.3516C40.1855-35.791 40.3809-36.3281 40.8203-36.7676L65.2344-61.084C65.625-61.4746 66.0156-61.7188 66.6504-61.7188C67.7246-61.7188 68.457-60.9375 68.457-59.9609C68.457-59.2773 68.1641-58.8867 67.7246-58.4473L54.541-45.2637L46.3867-37.1094L55.3711-37.3535L103.271-37.3535C104.443-37.3535 105.322-36.5723 105.322-35.2539C105.322-34.1797 104.541-33.3496 103.271-33.3496L55.3711-33.3496L46.4355-33.5449L54.541-25.4395L67.7246-12.2559C68.1641-11.8164 68.457-11.377 68.457-10.7422C68.457-9.76562 67.7246-8.98438 66.6504-8.98438C66.0156-8.98438 65.625-9.22852 65.2344-9.61914L40.8203-33.9355C40.4785-34.2773 40.1855-34.7656 40.1855-35.3516Z"/>
  </g>
  <g id="Ultralight-L" transform="matrix(1 0 0 1 487.616 1556)">
   <path d="M72.1191 25.5371C105.566 25.5371 132.91-1.80664 132.91-35.2539C132.91-68.75 105.566-96.0938 72.1191-96.0938C38.623-96.0938 11.2793-68.75 11.2793-35.2539C11.2793-1.80664 38.623 25.5371 72.1191 25.5371ZM39.7949-35.3516C39.7949-35.5469 39.8926-35.9863 40.1367-36.2305L65.0879-61.084C65.332-61.3281 65.5762-61.5723 66.0645-61.5723C66.7969-61.5723 67.1875-61.0352 67.1875-60.4492C67.1875-59.9609 66.9922-59.7168 66.6504-59.375L52.3438-45.0684L44.0918-36.5234L52.0508-36.7188L103.125-36.7188C103.906-36.7188 104.492-36.2305 104.492-35.2539C104.492-34.5703 103.955-33.9844 103.125-33.9844L52.0508-33.9844L44.1895-34.082L52.3438-25.6348L66.6504-11.3281C66.9922-10.9863 67.1875-10.7422 67.1875-10.2539C67.1875-9.61914 66.7969-9.13086 66.0645-9.13086C65.5762-9.13086 65.332-9.375 65.0879-9.61914L40.1367-34.4727C39.9902-34.6191 39.7949-34.9609 39.7949-35.3516Z"/>
  </g>
  <g id="Black-M" transform="matrix(1 0 0 1 2870.97 1126)">
   <path d="M62.4023 18.457C91.9922 18.457 116.113-5.61523 116.113-35.2051C116.113-64.7949 91.9922-88.8672 62.4023-88.8672C32.8125-88.8672 8.74023-64.7949 8.74023-35.2051C8.74023-5.61523 32.8125 18.457 62.4023 18.457ZM34.5215-35.1074C34.5215-37.9883 35.5469-40.332 37.4512-42.0898L55.7617-58.6426C57.5684-60.3027 58.9355-60.8398 61.084-60.8398C64.8438-60.8398 67.4316-58.1543 67.4316-54.1504C67.4316-52.2461 66.4551-50.2441 65.0879-49.1211L59.9121-44.873L55.7617-42.627L64.9902-43.457L82.8125-43.457C87.2559-43.457 90.3809-39.7949 90.3809-35.1074C90.3809-30.4688 87.2559-26.8066 82.8125-26.8066L64.9902-26.8066L55.7617-27.6367L59.5703-25.4395L65.0879-21.1426C66.5527-20.1172 67.4316-18.0664 67.4316-16.1133C67.4316-12.1094 64.8438-9.42383 61.084-9.42383C58.9355-9.42383 57.5684-9.96094 55.7617-11.6211L37.4512-28.1738C35.5469-29.9316 34.5215-32.2754 34.5215-35.1074Z"/>
  </g>
  <g id="Heavy-M" transform="matrix(1 0 0 1 2575.19 1126)">
   <path d="M61.5234 17.5293C90.5273 17.5293 114.258-6.20117 114.258-35.2051C114.258-64.2578 90.5273-87.9883 61.4746-87.9883C32.4707-87.9883 8.74023-64.2578 8.74023-35.2051C8.74023-6.20117 32.4707 17.5293 61.5234 17.5293ZM34.082-35.1562C34.082-37.5977 34.9609-39.5996 36.6699-41.1621L54.6875-57.8613C56.2012-59.2773 57.4707-59.7656 59.3262-59.7656C62.6953-59.7656 65.0391-57.373 65.0391-53.8086C65.0391-52.0996 64.209-50.3418 62.9883-49.3164L57.5684-44.6289L52.9785-41.6992L62.5488-42.4316L82.3242-42.4316C86.2305-42.4316 89.0137-39.2578 89.0137-35.1562C89.0137-31.1035 86.2305-27.9297 82.3242-27.9297L62.5488-27.9297L52.9785-28.6621L57.3242-25.7812L62.9883-21.0449C64.2578-20.0684 65.0391-18.3105 65.0391-16.5527C65.0391-12.9883 62.6953-10.5469 59.3262-10.5469C57.4707-10.5469 56.2012-11.084 54.6875-12.5L36.6699-29.1992C34.9609-30.7617 34.082-32.7148 34.082-35.1562Z"/>
  </g>
  <g id="Bold-M" transform="matrix(1 0 0 1 2279.5 1126)">
   <path d="M60.498 16.5039C88.8672 16.5039 112.207-6.83594 112.207-35.2051C112.207-63.623 88.8672-86.9629 60.4492-86.9629C32.0312-86.9629 8.74023-63.623 8.74023-35.2051C8.74023-6.83594 32.0801 16.5039 60.498 16.5039ZM33.5938-35.2051C33.5938-37.207 34.2773-38.7695 35.791-40.1367L53.418-56.9824C54.6387-58.1543 55.8105-58.5938 57.4219-58.5938C60.3516-58.5938 62.4023-56.4453 62.4023-53.418C62.4023-51.9043 61.6699-50.4395 60.6445-49.5605L54.9316-44.3359L49.8535-40.6738L59.7656-41.3086L81.7871-41.3086C85.0586-41.3086 87.4512-38.6719 87.4512-35.2051C87.4512-31.7871 85.1074-29.1504 81.7871-29.1504L59.7656-29.1504L49.8535-29.7852L54.7852-26.123L60.6445-20.8984C61.7188-20.0195 62.4023-18.5547 62.4023-17.041C62.4023-14.0137 60.3516-11.8164 57.4219-11.8164C55.8105-11.8164 54.6387-12.3047 53.418-13.4766L35.791-30.2734C34.3262-31.6406 33.5938-33.252 33.5938-35.2051Z"/>
  </g>
  <g id="Semibold-M" transform="matrix(1 0 0 1 1983.5 1126)">
   <path d="M59.7656 15.8203C87.7441 15.8203 110.791-7.27539 110.791-35.2539C110.791-63.2324 87.6953-86.2793 59.7656-86.2793C31.7871-86.2793 8.74023-63.2324 8.74023-35.2539C8.74023-7.27539 31.7871 15.8203 59.7656 15.8203ZM33.252-35.2539C33.252-36.9141 33.8379-38.1836 35.1562-39.4531L52.5879-56.3965C53.6133-57.373 54.6387-57.7637 56.0547-57.7637C58.6914-57.7637 60.5957-55.8594 60.5957-53.125C60.5957-51.8066 59.9609-50.5371 59.082-49.707L53.125-44.0918L47.7051-39.9414L57.8613-40.4785L81.3965-40.4785C84.2773-40.4785 86.377-38.2812 86.377-35.2539C86.377-32.2754 84.3262-30.0293 81.3965-30.0293L57.8613-30.0293L47.6562-30.5664L53.0273-26.416L59.082-20.8496C60.0098-20.0195 60.5957-18.75 60.5957-17.3828C60.5957-14.6973 58.6914-12.6953 56.0547-12.6953C54.6387-12.6953 53.6133-13.1348 52.5879-14.1602L35.1562-31.0059C33.8867-32.2266 33.252-33.5938 33.252-35.2539Z"/>
  </g>
  <g id="Medium-M" transform="matrix(1 0 0 1 1687.3 1126)">
   <path d="M59.2285 15.2344C86.9141 15.2344 109.766-7.61719 109.766-35.2539C109.766-62.8906 86.8652-85.7422 59.1797-85.7422C31.543-85.7422 8.74023-62.8906 8.74023-35.2539C8.74023-7.61719 31.5918 15.2344 59.2285 15.2344ZM33.0078-35.3027C33.0078-36.6699 33.4961-37.793 34.7168-38.916L51.9531-55.9082C52.832-56.7871 53.8086-57.1289 55.0293-57.1289C57.4707-57.1289 59.1797-55.3711 59.1797-52.9297C59.1797-51.709 58.6426-50.5859 57.8613-49.8047L51.7578-43.9453L46.0449-39.4043L56.4453-39.8926L81.1035-39.8926C83.6914-39.8926 85.5469-37.9395 85.5469-35.2539C85.5469-32.6172 83.6914-30.6641 81.1035-30.6641L56.4453-30.6641L46.0449-31.1523L51.709-26.6113L57.8613-20.752C58.6914-19.9707 59.1797-18.8477 59.1797-17.627C59.1797-15.1855 57.4707-13.3789 55.0293-13.3789C53.8086-13.3789 52.832-13.8184 51.9531-14.6484L34.7168-31.5918C33.5449-32.7148 33.0078-33.8379 33.0078-35.3027Z"/>
  </g>
  <g id="Regular-M" transform="matrix(1 0 0 1 1391.3 1126)">
   <path d="M58.5449 14.5508C85.791 14.5508 108.35-8.05664 108.35-35.2539C108.35-62.5 85.7422-85.0586 58.4961-85.0586C31.2988-85.0586 8.74023-62.5 8.74023-35.2539C8.74023-8.05664 31.3477 14.5508 58.5449 14.5508ZM32.666-35.3027C32.666-36.4258 33.0566-37.207 34.082-38.2324L51.0742-55.3223C51.7578-56.0059 52.6367-56.3477 53.7109-56.3477C55.8105-56.3477 57.373-54.7852 57.373-52.6855C57.373-51.6113 56.8848-50.6836 56.25-49.9512L50-43.75L43.9453-38.6719L54.5898-39.1113L80.7129-39.1113C82.9102-39.1113 84.5215-37.5488 84.5215-35.3027C84.5215-33.1055 82.959-31.543 80.7129-31.543L54.5898-31.543L43.8965-31.9336L50-26.8555L56.25-20.6543C56.9336-19.9707 57.373-19.043 57.373-17.9688C57.373-15.8691 55.8105-14.2578 53.7109-14.2578C52.6367-14.2578 51.7578-14.6484 51.0742-15.332L34.082-32.373C33.1543-33.3008 32.666-34.1797 32.666-35.3027Z"/>
  </g>
  <g id="Light-M" transform="matrix(1 0 0 1 1095.42 1126)">
   <path d="M57.7148 13.7207C84.5215 13.7207 106.689-8.44727 106.689-35.2539C106.689-62.1094 84.5215-84.2285 57.666-84.2285C30.8594-84.2285 8.74023-62.1094 8.74023-35.2539C8.74023-8.44727 30.9082 13.7207 57.7148 13.7207ZM32.0801-35.3027C32.0801-36.1328 32.4219-36.7676 33.1543-37.5488L50.8789-55.3223C51.416-55.8594 52.0996-56.1035 52.9297-56.1035C54.5898-56.1035 55.7617-54.9316 55.7617-53.3203C55.7617-52.4902 55.3711-51.7578 54.834-51.2207L47.0703-43.457L40.918-37.9395L50.1465-38.2812L80.4688-38.2812C82.1777-38.2812 83.3984-37.0605 83.3984-35.3027C83.3984-33.5938 82.2266-32.373 80.4688-32.373L50.1465-32.373L40.918-32.666L47.0703-27.1484L54.834-19.4336C55.4199-18.8965 55.7617-18.1641 55.7617-17.334C55.7617-15.7227 54.5898-14.502 52.9297-14.502C52.0996-14.502 51.416-14.7949 50.8789-15.332L33.1543-33.0566C32.4707-33.7891 32.0801-34.4238 32.0801-35.3027Z"/>
  </g>
  <g id="Thin-M" transform="matrix(1 0 0 1 799.806 1126)">
   <path d="M56.6406 12.5977C82.9102 12.5977 104.492-8.98438 104.492-35.2539C104.492-61.5723 82.9102-83.1543 56.5918-83.1543C30.3223-83.1543 8.74023-61.5723 8.74023-35.2539C8.74023-8.98438 30.3223 12.5977 56.6406 12.5977ZM31.3477-35.3027C31.3477-35.7422 31.543-36.2305 31.9336-36.6211L50.6348-55.2734C50.9766-55.6152 51.3672-55.8594 51.9043-55.8594C52.8809-55.8594 53.5645-55.127 53.5645-54.1992C53.5645-53.6133 53.3203-53.2227 52.9297-52.832L43.2129-43.1152L36.9141-36.9141L44.3359-37.1582L80.127-37.1582C81.2012-37.1582 81.9824-36.4258 81.9824-35.2539C81.9824-34.2773 81.25-33.4961 80.127-33.4961L44.3359-33.4961L36.9629-33.6914L43.2129-27.5391L52.9297-17.8223C53.3203-17.4316 53.5645-17.041 53.5645-16.4551C53.5645-15.5273 52.8809-14.7949 51.9043-14.7949C51.3672-14.7949 50.9766-15.0391 50.6348-15.3809L31.9336-33.9844C31.5918-34.375 31.3477-34.7656 31.3477-35.3027Z"/>
  </g>
  <g id="Ultralight-M" transform="matrix(1 0 0 1 503.656 1126)">
   <path d="M56.0547 12.0605C82.0801 12.0605 103.369-9.22852 103.369-35.2539C103.369-61.2793 82.0801-82.5684 56.0547-82.5684C30.0293-82.5684 8.74023-61.2793 8.74023-35.2539C8.74023-9.22852 30.0293 12.0605 56.0547 12.0605ZM30.957-35.3027C30.957-35.5469 31.1035-35.9375 31.2988-36.1328L50.4883-55.2734C50.7324-55.5176 50.9766-55.7129 51.416-55.7129C52.0508-55.7129 52.4902-55.2246 52.4902-54.6387C52.4902-54.1992 52.2949-53.9551 52.002-53.6621L41.2598-42.9199L34.8633-36.4258L41.3574-36.5723L79.9805-36.5723C80.6641-36.5723 81.25-36.084 81.25-35.2539C81.25-34.6191 80.7617-34.082 79.9805-34.082L41.3574-34.082L34.9609-34.1797L41.2598-27.7344L52.002-16.9922C52.2949-16.6992 52.4902-16.4551 52.4902-16.0156C52.4902-15.4297 52.0508-14.9414 51.416-14.9414C50.9766-14.9414 50.7324-15.1367 50.4883-15.3809L31.2988-34.4727C31.1523-34.668 30.957-34.9609 30.957-35.3027Z"/>
  </g>
  <g id="Black-S" transform="matrix(1 0 0 1 2884.57 696)">
   <path d="M48.8281 6.78711C71.9727 6.78711 90.8203-12.0605 90.8203-35.2051C90.8203-58.3496 71.9727-77.1973 48.8281-77.1973C25.6836-77.1973 6.83594-58.3496 6.83594-35.2051C6.83594-12.0605 25.6836 6.78711 48.8281 6.78711ZM27.002-35.1562C27.002-37.3535 27.7832-39.1602 29.2969-40.5273L43.6035-53.5156C44.9707-54.7852 46.0449-55.2246 47.7051-55.2246C50.6348-55.2246 52.6367-53.125 52.6367-50C52.6367-48.5352 51.9043-46.9727 50.8301-46.0938L46.7773-42.7734L43.5059-40.9668L50.7812-41.6016L64.8438-41.6016C68.2617-41.6016 70.7031-38.7695 70.7031-35.1562C70.7031-31.543 68.2617-28.7109 64.8438-28.7109L50.7812-28.7109L43.5059-29.3457L46.5332-27.5879L50.8301-24.2188C51.9531-23.3887 52.6367-21.8262 52.6367-20.3125C52.6367-17.1875 50.6348-15.0879 47.7051-15.0879C46.0449-15.0879 44.9707-15.5273 43.6035-16.7969L29.2969-29.7852C27.7832-31.1523 27.002-32.959 27.002-35.1562Z"/>
  </g>
  <g id="Heavy-S" transform="matrix(1 0 0 1 2588.47 696)">
   <path d="M48.2422 6.15234C70.9961 6.15234 89.5996-12.4512 89.5996-35.2051C89.5996-57.959 70.9961-76.6113 48.1934-76.6113C25.4395-76.6113 6.83594-57.959 6.83594-35.2051C6.83594-12.4512 25.4395 6.15234 48.2422 6.15234ZM26.709-35.2051C26.709-37.1094 27.3926-38.6719 28.8086-39.8926L42.7734-52.9297C43.9453-54.0527 44.9707-54.4434 46.4844-54.4434C49.1699-54.4434 51.0254-52.4902 51.0254-49.6582C51.0254-48.3398 50.3418-46.9238 49.4141-46.0938L45.3125-42.5781L41.6992-40.332L49.3652-40.918L64.502-40.918C67.5781-40.918 69.7754-38.4277 69.7754-35.2051C69.7754-31.9824 67.5781-29.4922 64.502-29.4922L49.3652-29.4922L41.6992-30.0293L45.1172-27.7832L49.4141-24.2676C50.3906-23.4863 51.0254-22.0703 51.0254-20.7031C51.0254-17.8711 49.1699-15.918 46.4844-15.918C44.9707-15.918 43.9453-16.3574 42.7734-17.4805L28.8086-30.4688C27.4414-31.6895 26.709-33.252 26.709-35.2051Z"/>
  </g>
  <g id="Bold-S" transform="matrix(1 0 0 1 2292.44 696)">
   <path d="M47.5586 5.46875C69.873 5.46875 88.2324-12.8906 88.2324-35.2539C88.2324-57.5684 69.873-75.9277 47.5098-75.9277C25.1953-75.9277 6.83594-57.5684 6.83594-35.2539C6.83594-12.8906 25.1953 5.46875 47.5586 5.46875ZM26.416-35.2539C26.416-36.8164 27.002-38.0859 28.2227-39.209L41.8457-52.2461C42.8223-53.1738 43.7988-53.5645 45.0684-53.5645C47.5098-53.5645 49.1699-51.8066 49.1699-49.3164C49.1699-48.0957 48.6328-46.875 47.8027-46.1426L43.6523-42.4316L39.6973-39.6484L47.8516-40.1367L64.1113-40.1367C66.7969-40.1367 68.7012-38.0371 68.7012-35.2051C68.7012-32.4219 66.7969-30.3223 64.1113-30.3223L47.8516-30.3223L39.6484-30.8105L43.5547-28.0273L47.8027-24.3164C48.6816-23.584 49.1699-22.4121 49.1699-21.1426C49.1699-18.6523 47.5098-16.8945 45.0684-16.8945C43.7988-16.8945 42.8223-17.2852 41.8457-18.2129L28.2227-31.2012C27.002-32.3242 26.416-33.5938 26.416-35.2539Z"/>
  </g>
  <g id="Semibold-S" transform="matrix(1 0 0 1 1996.2 696)">
   <path d="M47.0703 4.98047C69.0918 4.98047 87.3047-13.1836 87.3047-35.2539C87.3047-57.2754 69.0918-75.4883 47.0215-75.4883C25-75.4883 6.83594-57.2754 6.83594-35.2539C6.83594-13.1836 25.0488 4.98047 47.0703 4.98047ZM26.2207-35.2539C26.2207-36.6211 26.709-37.6953 27.832-38.7695L41.2109-51.8066C42.0898-52.5879 42.9688-52.9297 44.1406-52.9297C46.3379-52.9297 47.9492-51.3184 47.9492-49.0234C47.9492-47.9492 47.4121-46.875 46.6797-46.1426L42.5293-42.2852L38.2812-39.1602L46.7285-39.5996L63.8184-39.5996C66.2598-39.5996 67.9688-37.7441 67.9688-35.2539C67.9688-32.7637 66.2598-30.9082 63.8184-30.9082L46.7285-30.9082L38.2812-31.3477L42.4805-28.2227L46.6797-24.3652C47.4609-23.6816 47.9492-22.6074 47.9492-21.4844C47.9492-19.1895 46.3379-17.5293 44.1406-17.5293C42.9688-17.5293 42.0898-17.9199 41.2109-18.75L27.832-31.7383C26.7578-32.7637 26.2207-33.8379 26.2207-35.2539Z"/>
  </g>
  <g id="Medium-S" transform="matrix(1 0 0 1 1699.83 696)">
   <path d="M46.7285 4.63867C68.5547 4.63867 86.6211-13.4277 86.6211-35.2539C86.6211-57.0801 68.5059-75.1465 46.6797-75.1465C24.8535-75.1465 6.83594-57.0801 6.83594-35.2539C6.83594-13.4277 24.9023 4.63867 46.7285 4.63867ZM26.0254-35.2539C26.0254-36.4746 26.5137-37.4023 27.5391-38.3789L40.7227-51.416C41.5039-52.1484 42.334-52.4902 43.4082-52.4902C45.459-52.4902 46.9727-50.9277 46.9727-48.8281C46.9727-47.8027 46.4844-46.8262 45.8496-46.1914L41.6992-42.1875L37.2559-38.7695L45.9473-39.209L63.623-39.209C65.8203-39.209 67.4316-37.5488 67.4316-35.2539C67.4316-33.0078 65.8691-31.3477 63.623-31.3477L45.9473-31.3477L37.207-31.7871L41.6504-28.3691L45.8496-24.3652C46.5332-23.7305 46.9727-22.7539 46.9727-21.7285C46.9727-19.6289 45.459-18.0176 43.4082-18.0176C42.334-18.0176 41.5039-18.4082 40.7227-19.1406L27.5391-32.1289C26.5137-33.1055 26.0254-34.0332 26.0254-35.2539Z"/>
  </g>
  <g id="Regular-S" transform="matrix(1 0 0 1 1403.58 696)">
   <path d="M46.2402 4.15039C67.7734 4.15039 85.6934-13.7207 85.6934-35.2539C85.6934-56.7871 67.7246-74.6582 46.1914-74.6582C24.707-74.6582 6.83594-56.7871 6.83594-35.2539C6.83594-13.7207 24.7559 4.15039 46.2402 4.15039ZM25.8301-35.3027C25.8301-36.2793 26.2207-37.0117 27.1484-37.9395L40.0879-50.9766C40.7227-51.5625 41.5039-51.8555 42.4805-51.8555C44.3359-51.8555 45.752-50.4395 45.752-48.584C45.752-47.6562 45.3125-46.7773 44.7266-46.1914L40.5762-42.041L35.8398-38.3301L44.873-38.6719L63.3301-38.6719C65.332-38.6719 66.748-37.2559 66.748-35.3027C66.748-33.3496 65.332-31.9336 63.3301-31.9336L44.873-31.9336L35.8398-32.2754L40.5762-28.5156L44.7266-24.4141C45.3613-23.8281 45.752-22.9492 45.752-22.0215C45.752-20.166 44.3359-18.7012 42.4805-18.7012C41.5039-18.7012 40.7227-19.043 40.0879-19.6289L27.1484-32.6172C26.2695-33.4961 25.8301-34.2773 25.8301-35.3027Z"/>
  </g>
  <g id="Light-S" transform="matrix(1 0 0 1 1107.6 696)">
   <path d="M45.5078 3.41797C66.6992 3.41797 84.2285-14.0625 84.2285-35.2539C84.2285-56.4453 66.6504-73.9258 45.5078-73.9258C24.3164-73.9258 6.83594-56.4453 6.83594-35.2539C6.83594-14.0625 24.3652 3.41797 45.5078 3.41797ZM25.3418-35.3027C25.3418-36.0352 25.6348-36.6211 26.3184-37.3047L39.9414-50.9766C40.4297-51.416 41.0156-51.6602 41.748-51.6602C43.2129-51.6602 44.2871-50.5859 44.2871-49.1699C44.2871-48.3887 43.9453-47.7539 43.5059-47.2656L37.9883-41.7969L33.2031-37.6465L40.9668-37.9395L63.1348-37.9395C64.6484-37.9395 65.7715-36.8652 65.7715-35.3027C65.7715-33.7891 64.6484-32.666 63.1348-32.666L40.9668-32.666L33.1543-32.959L37.9883-28.7598L43.5059-23.3398C43.9941-22.8516 44.2871-22.2168 44.2871-21.4355C44.2871-20.0195 43.2129-18.8965 41.748-18.8965C41.0156-18.8965 40.4297-19.1895 39.9414-19.6289L26.3184-33.252C25.6836-33.9355 25.3418-34.5215 25.3418-35.3027Z"/>
  </g>
  <g id="Thin-S" transform="matrix(1 0 0 1 811.867 696)">
   <path d="M44.5801 2.49023C65.2832 2.49023 82.2754-14.5508 82.2754-35.2539C82.2754-55.957 65.2344-72.998 44.5312-72.998C23.8281-72.998 6.83594-55.957 6.83594-35.2539C6.83594-14.5508 23.877 2.49023 44.5801 2.49023ZM24.707-35.3027C24.707-35.6934 24.8535-36.1328 25.2441-36.5234L39.6973-50.9277C39.9902-51.2695 40.3809-51.416 40.8691-51.416C41.748-51.416 42.3828-50.7812 42.3828-49.9023C42.3828-49.4141 42.1387-49.0234 41.8457-48.6816L34.5703-41.4551L29.6875-36.7676L35.8398-36.9629L62.8418-36.9629C63.7695-36.9629 64.502-36.2793 64.502-35.2539C64.502-34.3262 63.8184-33.6426 62.8418-33.6426L35.8398-33.6426L29.6875-33.8379L34.5703-29.1016L41.8457-21.9238C42.1875-21.582 42.3828-21.1914 42.3828-20.7031C42.3828-19.8242 41.748-19.1406 40.8691-19.1406C40.3809-19.1406 39.9902-19.3359 39.6973-19.6777L25.2441-34.082C24.9023-34.4238 24.707-34.8145 24.707-35.3027Z"/>
  </g>
  <g id="Ultralight-S" transform="matrix(1 0 0 1 515.644 696)">
   <path d="M44.043 1.95312C64.502 1.95312 81.2988-14.7949 81.2988-35.2539C81.2988-55.7129 64.502-72.4609 44.043-72.4609C23.584-72.4609 6.83594-55.7129 6.83594-35.2539C6.83594-14.7949 23.584 1.95312 44.043 1.95312ZM24.3652-35.3027C24.3652-35.5469 24.4629-35.8398 24.707-36.084L39.5996-50.9277C39.7949-51.123 40.0391-51.3184 40.3809-51.3184C41.0156-51.3184 41.4062-50.8789 41.4062-50.293C41.4062-49.9512 41.2109-49.707 40.9668-49.4629L32.8125-41.3086L27.8809-36.2793L33.1543-36.4258L62.6953-36.4258C63.3301-36.4258 63.8184-35.9863 63.8184-35.2539C63.8184-34.668 63.3789-34.1797 62.6953-34.1797L33.1543-34.1797L27.8809-34.2773L32.8125-29.2969L40.9668-21.1426C41.2109-20.8984 41.4062-20.6543 41.4062-20.3125C41.4062-19.7266 41.0156-19.2871 40.3809-19.2871C40.0391-19.2871 39.7949-19.4824 39.5996-19.6777L24.707-34.5215C24.5117-34.7168 24.3652-34.9609 24.3652-35.3027Z"/>
  </g>
 </g>
</svg>
